<svg xmlns="http://www.w3.org/2000/svg" width="512" height="512" viewBox="0 0 172 172">
  <rect width="172" height="172" rx="32" fill="#1c1917"/>
  <g id="sticks">
    <path d="M32.25 154.531C28.4875 154.531 24.9937 152.247 23.5156 148.753C21.5 143.916 23.7844 138.406 28.6219 136.391L136.122 91.5093C137.331 90.9718 138.541 90.8375 139.75 90.8375C143.512 90.8375 147.006 93.1218 148.484 96.6156C149.425 98.9 149.425 101.453 148.484 103.872C147.544 106.156 145.662 108.037 143.378 108.978L35.8781 153.859C34.6687 154.262 33.4594 154.531 32.25 154.531Z" fill="#826774"/>
    <path d="M31.4437 135.987C29.1629 135.987 26.9754 136.908 25.3626 138.546C23.7498 140.184 22.8438 142.405 22.8438 144.722C22.8438 147.038 23.7498 149.26 25.3626 150.898C26.9754 152.536 29.1629 153.456 31.4437 153.456C33.7246 153.456 35.9121 152.536 37.5249 150.898C39.1377 149.26 40.0437 147.038 40.0437 144.722C40.0437 142.405 39.1377 140.184 37.5249 138.546C35.9121 136.908 33.7246 135.987 31.4437 135.987Z" fill="#E8D8C4"/>
    <path d="M139.75 154.531C138.541 154.531 137.331 154.263 136.122 153.859L28.6219 108.844C23.7844 106.828 21.6345 101.319 23.5157 96.4813C24.9938 92.9875 28.3532 90.7031 32.2501 90.7031C33.4595 90.7031 34.6688 90.9719 35.8782 91.375L143.378 136.256C145.663 137.197 147.544 139.078 148.484 141.362C149.425 143.647 149.425 146.2 148.484 148.619C147.006 152.247 143.513 154.531 139.75 154.531Z" fill="#AA8F9D"/>
    <path d="M140.556 137.062C138.275 137.062 136.088 137.983 134.475 139.621C132.862 141.259 131.956 143.48 131.956 145.797C131.956 148.113 132.862 150.335 134.475 151.973C136.088 153.611 138.275 154.531 140.556 154.531C142.837 154.531 145.025 153.611 146.637 151.973C148.25 150.335 149.156 148.113 149.156 145.797C149.156 143.48 148.25 141.259 146.637 139.621C145.025 137.983 142.837 137.063 140.556 137.062Z" fill="#E8D8C4"/>
  </g>
  <g id="fire">
    <path d="M117.309 83.1781C117.309 83.1781 116.369 80.7594 115.697 79.8188L99.4375 44.3438L92.7188 55.0938L79.2812 30.9062L56.5719 79.1469C55.9 80.3563 55.2281 81.7 54.6906 83.0438C53.2125 86.9406 52.4062 91.1063 52.4062 95.4062C52.4062 113.95 67.4563 129 86 129C104.544 129 119.594 113.95 119.594 95.4062C119.594 91.1063 118.788 86.9406 117.309 83.1781Z" fill="#F8E390"/>
    <path d="M86 115.562C69.7406 115.562 56.1688 104.006 53.0781 88.6875C52.675 90.8375 52.4062 93.1219 52.4062 95.4062C52.4062 113.95 67.4563 129 86 129C104.544 129 119.594 113.95 119.594 95.4062C119.594 93.1219 119.325 90.8375 118.922 88.6875C115.831 104.006 102.259 115.562 86 115.562Z" fill="#EE7778"/>
    <path d="M86 115.563C76.7281 115.563 69.2031 108.038 69.2031 98.7656C69.2031 96.75 69.6062 94.7344 70.2781 92.7188C70.6812 91.9125 70.95 91.1063 71.2188 90.8375L71.4875 90.3L72.5625 87.8813L78.8781 97.9594L92.5844 73.3688L100.378 89.8969L100.781 90.5688C101.05 91.1063 101.453 91.7782 101.722 92.45C102.528 94.4657 102.931 96.4813 102.931 98.6313C102.797 108.038 95.2719 115.563 86 115.563Z" fill="white"/>
  </g>
</svg>
